<?xml version="1.0" standalone="no"?>
<!DOCTYPE svg PUBLIC "-//W3C//DTD SVG 20010904//EN"
 "http://www.w3.org/TR/2001/REC-SVG-20010904/DTD/svg10.dtd">
<svg version="1.0" xmlns="http://www.w3.org/2000/svg"
 width="980.000000pt" height="980.000000pt" viewBox="0 0 980.000000 980.000000"
 preserveAspectRatio="xMidYMid meet">
<metadata>
Created by potrace 1.11, written by Peter Selinger 2001-2013
</metadata>
<g transform="translate(0.000000,980.000000) scale(0.100000,-0.100000)"
fill="#000000" stroke="none">
<path d="M258 8879 c-92 -49 -164 -118 -207 -199 l-32 -60 -9 -467 c-11 -556
-12 -4606 -1 -5008 l7 -280 33 -62 c42 -79 132 -169 215 -215 l65 -36 1900 -7
1901 -8 0 -518 0 -519 -700 0 -700 0 0 -310 0 -310 2170 0 2170 0 0 310 0 310
-700 0 -700 0 0 519 0 518 1903 8 1902 7 65 36 c90 49 178 140 221 227 l34 70
3 2863 2 2864 -55 84 c-60 90 -105 131 -202 188 l-61 36 -4574 0 -4573 -1 -77
-40z m8922 -3149 l0 -2570 -4280 0 -4280 0 0 2570 0 2570 4280 0 4280 0 0
-2570z"/>
<path d="M5055 7358 c-13 -38 -744 -3106 -770 -3236 l-7 -32 226 0 c205 0 225
2 230 18 13 43 763 3148 781 3230 l7 32 -232 0 c-175 0 -232 -3 -235 -12z"/>
<path d="M3918 6855 c-176 -76 -1946 -840 -1982 -856 l-28 -13 7 -266 c4 -146
10 -268 14 -272 7 -7 866 -382 1739 -758 l412 -178 0 312 0 311 -113 44 c-263
103 -1310 522 -1333 534 -26 13 -25 14 43 44 97 43 512 202 1265 486 l138 52
0 292 c0 160 -3 298 -6 307 -3 9 -11 16 -18 15 -6 0 -68 -25 -138 -54z"/>
<path d="M5727 6903 c-4 -3 -7 -140 -7 -303 l0 -297 483 -188 c778 -303 988
-388 980 -396 -13 -13 -279 -121 -878 -358 l-570 -226 -7 -65 c-4 -36 -5 -175
-2 -308 6 -218 8 -243 23 -239 9 2 492 211 1074 463 l1057 459 0 271 c0 208
-3 273 -12 277 -7 3 -368 159 -803 347 -1016 440 -1318 570 -1326 570 -3 0 -9
-3 -12 -7z"/>
</g>
</svg>
